<svg width="510" height="148" viewBox="0 0 510 148" fill="none" xmlns="http://www.w3.org/2000/svg">
<path fill-rule="evenodd" clip-rule="evenodd" d="M387.044 2.53574L509.12 2.75776L494.388 36.2192H428.677V57.8584H479.718V89.092H428.677V111.751H494.404L509.092 145.436H387.044V2.53574ZM250.486 2.53564L237.368 35.5446H208.613V145.435H169.849V35.5446H141.533L128.41 2.53564H250.486ZM308.54 2.53564C333.52 2.53564 353.044 8.85266 368.998 20.8927L348.637 47.9316C335.202 39.0498 320.506 34.3122 307.491 34.3122C297.625 34.3122 292.796 38.2601 292.796 43.1949V43.589C292.796 49.9055 297.834 52.6701 318.198 57.0118C351.995 63.9195 372.988 74.1826 372.988 100.039V100.433C372.988 128.659 349.265 145.435 313.579 145.435C287.55 145.435 262.778 137.739 244.725 122.541L267.397 97.0774C281.881 107.935 298.044 113.658 315.048 113.658C325.963 113.658 331.841 110.106 331.841 104.184V103.789C331.841 98.0656 327.015 94.9073 307.071 90.5648C275.794 83.855 251.652 75.5649 251.652 47.1437V46.7473C251.652 21.0888 273.274 2.53564 308.54 2.53564ZM74.6509 4.40385C92.9499 4.40385 105.842 8.77677 114.367 16.9267C120.19 22.4947 123.725 29.8503 123.725 39.3928V39.7907C123.725 55.894 114.158 65.4347 101.267 70.8042C118.942 76.3717 130.171 85.9123 130.171 104.8V105.197C130.171 129.053 109.793 143.568 75.067 143.568H0V4.40385H74.6509ZM70.0765 86.9061H39.3012V112.554H70.4921C82.7612 112.554 89.8315 107.98 89.8315 99.8306V99.4327C89.8315 91.8763 83.5903 86.9061 70.0765 86.9061ZM65.5017 35.4169H39.3012V59.8695H64.6705C76.9396 59.8695 83.8006 55.894 83.8006 47.7413V47.3438C83.8006 39.7907 77.5625 35.4169 65.5017 35.4169Z" fill="#015FE5"/>
</svg>
